<svg width="53" height="41" viewBox="0 0 53 41" fill="none" xmlns="http://www.w3.org/2000/svg">
<path d="M50 13.5C50 12.5717 49.6191 11.6815 48.9411 11.0251C48.2631 10.3687 47.3435 10 46.3846 10H39.1538L33.7308 3H19.2692L13.8462 10H6.61538C5.65652 10 4.73694 10.3687 4.05892 11.0251C3.38091 11.6815 3 12.5717 3 13.5V34.5C3 35.4283 3.38091 36.3185 4.05892 36.9749C4.73694 37.6313 5.65652 38 6.61538 38H46.3846C47.3435 38 48.2631 37.6313 48.9411 36.9749C49.6191 36.3185 50 35.4283 50 34.5V13.5Z" stroke="#3E2882" stroke-width="4.5" stroke-linecap="round" stroke-linejoin="round"/>
<path d="M26.5 30.125C30.9926 30.125 34.6346 26.5992 34.6346 22.25C34.6346 17.9008 30.9926 14.375 26.5 14.375C22.0073 14.375 18.3654 17.9008 18.3654 22.25C18.3654 26.5992 22.0073 30.125 26.5 30.125Z" stroke="#3E2882" stroke-width="4.5" stroke-linecap="round" stroke-linejoin="round"/>
</svg>
