<svg width="46" height="52" viewBox="0 0 46 52" fill="none" xmlns="http://www.w3.org/2000/svg">
<path d="M40.6667 3H5.66666C4.28594 3 3.16666 4.04094 3.16666 5.325V47.175C3.16666 48.4591 4.28594 49.5 5.66666 49.5H40.6667C42.0474 49.5 43.1667 48.4591 43.1667 47.175V5.325C43.1667 4.04094 42.0474 3 40.6667 3Z" stroke="#3E2882" stroke-width="4.5" stroke-linecap="round" stroke-linejoin="round"/>
<path d="M23.1667 21.6C26.6184 21.6 29.4167 18.9977 29.4167 15.7875C29.4167 12.5774 26.6184 9.97501 23.1667 9.97501C19.7149 9.97501 16.9167 12.5774 16.9167 15.7875C16.9167 18.9977 19.7149 21.6 23.1667 21.6Z" stroke="#3E2882" stroke-width="4.5"/>
<path d="M10.6666 12.3C12.0474 12.3 13.1666 11.2591 13.1666 9.97499C13.1666 8.69093 12.0474 7.64999 10.6666 7.64999C9.28593 7.64999 8.16664 8.69093 8.16664 9.97499C8.16664 11.2591 9.28593 12.3 10.6666 12.3Z" fill="#3E2882"/>
<path d="M10.6666 44.85C12.0474 44.85 13.1666 43.8091 13.1666 42.525C13.1666 41.241 12.0474 40.2 10.6666 40.2C9.28593 40.2 8.16664 41.241 8.16664 42.525C8.16664 43.8091 9.28593 44.85 10.6666 44.85Z" fill="#3E2882"/>
<path d="M35.6667 12.3C37.0474 12.3 38.1667 11.2591 38.1667 9.97499C38.1667 8.69093 37.0474 7.64999 35.6667 7.64999C34.2859 7.64999 33.1667 8.69093 33.1667 9.97499C33.1667 11.2591 34.2859 12.3 35.6667 12.3Z" fill="#3E2882"/>
<path d="M35.6667 44.85C37.0474 44.85 38.1667 43.8091 38.1667 42.525C38.1667 41.241 37.0474 40.2 35.6667 40.2C34.2859 40.2 33.1667 41.241 33.1667 42.525C33.1667 43.8091 34.2859 44.85 35.6667 44.85Z" fill="#3E2882"/>
<path d="M23.1666 42.525C27.3088 42.525 30.6666 39.4022 30.6666 35.55C30.6666 31.6978 27.3088 28.575 23.1666 28.575C19.0245 28.575 15.6666 31.6978 15.6666 35.55C15.6666 39.4022 19.0245 42.525 23.1666 42.525Z" stroke="#3E2882" stroke-width="4.5"/>
</svg>
