<svg width="52" height="47" viewBox="0 0 52 47" fill="none" xmlns="http://www.w3.org/2000/svg">
<g clip-path="url(#clip0_162_7486)">
<path d="M46.8629 11.542H39.4188C40.2024 10.3397 40.5942 9.04723 40.5942 7.6646C40.5942 5.56059 39.778 3.75716 38.1455 2.25429C36.513 0.751431 34.5541 0 32.2686 0C29.6567 0 27.5671 0.901718 26 2.70515C24.4328 0.901718 22.3433 0 19.7313 0C17.4459 0 15.4869 0.751431 13.8544 2.25429C12.222 3.75716 11.4058 5.56059 11.4058 7.6646C11.4058 9.04723 11.7975 10.3397 12.5811 11.542H5.13709C3.96172 11.542 2.96592 11.9177 2.14969 12.6691C1.33345 13.4206 0.925339 14.3373 0.925339 15.4194V19.2066C0.925339 20.2886 1.33345 21.2054 2.14969 21.9568C2.96592 22.7083 3.96172 23.084 5.13709 23.084V40.3969C5.13709 42.02 5.72478 43.3876 6.90015 44.4998C8.07553 45.6119 9.57739 46.1679 11.4058 46.1679H40.5942C42.4226 46.1679 43.9244 45.6119 45.0998 44.4998C46.2752 43.3876 46.8629 42.02 46.8629 40.3969V23.084C48.0382 23.084 49.034 22.7083 49.8503 21.9568C50.6665 21.2054 51.0746 20.2886 51.0746 19.2066V15.4194C51.0746 14.3373 50.6665 13.4206 49.8503 12.6691C49.034 11.9177 48.0382 11.542 46.8629 11.542ZM19.7313 42.2906H11.4058C9.96918 42.2906 9.2509 41.6594 9.2509 40.3969V23.084H19.7313V42.2906ZM19.7313 19.2066H5.13709V15.4194H19.7313V19.2066ZM19.7313 11.542C18.6212 11.542 17.6418 11.1663 16.7929 10.4148C15.944 9.66341 15.5196 8.74666 15.5196 7.6646C15.5196 6.64265 15.944 5.75596 16.7929 5.00453C17.6418 4.2531 18.6212 3.87739 19.7313 3.87739C20.8414 3.87739 21.8209 4.2531 22.6697 5.00453C23.5186 5.75596 23.9431 6.64265 23.9431 7.6646C23.9431 8.74666 23.5186 9.66341 22.6697 10.4148C21.8209 11.1663 20.8414 11.542 19.7313 11.542ZM28.0569 42.2906H23.9431V23.084H28.0569V42.2906ZM28.0569 19.2066H23.9431V15.4194H28.0569V19.2066ZM28.0569 7.6646C28.0569 6.64265 28.4813 5.75596 29.3302 5.00453C30.1791 4.2531 31.1586 3.87739 32.2686 3.87739C33.3787 3.87739 34.3582 4.2531 35.2071 5.00453C36.0559 5.75596 36.4804 6.64265 36.4804 7.6646C36.4804 8.74666 36.0559 9.66341 35.2071 10.4148C34.3582 11.1663 33.3787 11.542 32.2686 11.542C31.1586 11.542 30.1791 11.1663 29.3302 10.4148C28.4813 9.66341 28.0569 8.74666 28.0569 7.6646ZM42.749 40.3969C42.749 41.6594 42.0308 42.2906 40.5942 42.2906H32.2686V23.084H42.749V40.3969ZM46.8629 19.2066H32.2686V15.4194H46.8629V19.2066Z" fill="#3E2882"/>
</g>
<defs>
<clipPath id="clip0_162_7486">
<rect width="50.1493" height="46.1679" fill="white" transform="translate(0.925339)"/>
</clipPath>
</defs>
</svg>
