<svg width="44" height="53" viewBox="0 0 44 53" fill="none" xmlns="http://www.w3.org/2000/svg">
<path d="M35.3732 52.7633C36.9503 52.7674 38.4982 52.372 39.8476 51.6204C41.197 50.8688 42.2958 49.79 43.0237 48.502C43.7517 47.214 44.0808 45.7664 43.9749 44.3178C43.8691 42.8691 43.3324 41.4752 42.4237 40.2885C41.5149 39.1018 40.2691 38.1682 38.8226 37.5897C37.376 37.0112 35.7845 36.8102 34.2222 37.0086C32.6599 37.2071 31.1869 37.7974 29.9646 38.7149C28.7423 39.6324 27.8177 40.8418 27.292 42.2107H12.849L18.5517 34.1379C20.2059 34.3482 21.8837 34.3482 23.5379 34.1379L26.4609 38.2534C27.6645 36.9343 29.212 35.7735 31.0746 35.0876L29.3266 32.6341C32.8353 31.1699 35.8119 28.8065 37.9005 25.8264C39.9891 22.8463 41.1014 19.3756 41.1045 15.829H0.985107C0.990669 19.3785 2.10723 22.8512 4.20113 25.8316C6.29503 28.812 9.27756 31.1738 12.7917 32.6341L1.47227 48.6742C1.12443 49.2571 1.02856 49.9394 1.20384 50.5846C1.37912 51.2297 1.81262 51.7902 2.41758 52.1537C3.02253 52.5172 3.75429 52.6569 4.46638 52.545C5.17848 52.433 5.81836 52.0775 6.25794 51.5498L9.12361 47.487H27.292C27.8832 49.0265 28.9772 50.36 30.424 51.3046C31.8707 52.2492 33.5995 52.7587 35.3732 52.7633ZM35.3732 42.2107C36.1332 42.2107 36.8621 42.4886 37.3995 42.9834C37.9369 43.4781 38.2388 44.1491 38.2388 44.8488C38.2388 46.2998 36.9493 47.487 35.3732 47.487C33.797 47.487 32.5075 46.2998 32.5075 44.8488C32.5075 44.1491 32.8094 43.4781 33.3468 42.9834C33.8842 42.4886 34.6131 42.2107 35.3732 42.2107ZM7.92003 21.1053H34.1696C33.0524 23.4537 31.216 25.4515 28.8851 26.8543C26.5541 28.2572 23.8296 29.0043 21.0448 29.0043C18.26 29.0043 15.5355 28.2572 13.2045 26.8543C10.8736 25.4515 9.03725 23.4537 7.92003 21.1053ZM13.6227 13.1908H16.4884C16.9182 10.1569 17.1475 8.86424 13.8806 5.38186C12.7344 4.06278 11.9893 3.35047 12.6197 0H9.78272C9.4402 1.3936 9.49506 2.84508 9.94195 4.2134C10.3889 5.58172 11.2126 6.82036 12.3332 7.80897C12.9636 8.44213 14.597 9.57654 13.6227 13.1908ZM20.7296 13.1908H23.5952C24.0251 10.1569 24.2544 8.86424 21.0448 5.38186C19.8412 4.06278 19.0961 3.32409 19.7266 0H16.8896C16.5471 1.3936 16.6019 2.84508 17.0488 4.2134C17.4957 5.58172 18.3195 6.82036 19.44 7.80897C20.0991 8.44213 21.7326 9.57654 20.7296 13.1908ZM27.9511 13.1908H30.8167C31.2466 10.1569 31.4758 8.86424 28.209 5.38186C27.0627 4.06278 26.3176 3.35047 26.9481 0H24.1111C23.7686 1.3936 23.8234 2.84508 24.2703 4.2134C24.7172 5.58172 25.541 6.82036 26.6615 7.80897C27.292 8.44213 28.9254 9.57654 27.9511 13.1908Z" fill="#3E2882"/>
</svg>
