<svg width="60" height="40" viewBox="0 0 60 40" fill="none" xmlns="http://www.w3.org/2000/svg">
<path d="M39 3V7.83333M39 17.5V22.3333M39 32V36.8333M9 3H51C52.5913 3 54.1174 3.50922 55.2426 4.41565C56.3679 5.32208 57 6.55145 57 7.83333V15.0833C55.4087 15.0833 53.8826 15.5926 52.7574 16.499C51.6321 17.4054 51 18.6348 51 19.9167C51 21.1985 51.6321 22.4279 52.7574 23.3343C53.8826 24.2408 55.4087 24.75 57 24.75V32C57 33.2819 56.3679 34.5113 55.2426 35.4177C54.1174 36.3241 52.5913 36.8333 51 36.8333H9C7.4087 36.8333 5.88258 36.3241 4.75736 35.4177C3.63214 34.5113 3 33.2819 3 32V24.75C4.5913 24.75 6.11742 24.2408 7.24264 23.3343C8.36786 22.4279 9 21.1985 9 19.9167C9 18.6348 8.36786 17.4054 7.24264 16.499C6.11742 15.5926 4.5913 15.0833 3 15.0833V7.83333C3 6.55145 3.63214 5.32208 4.75736 4.41565C5.88258 3.50922 7.4087 3 9 3Z" stroke="#3E2882" stroke-width="5" stroke-linecap="round" stroke-linejoin="round"/>
</svg>
