<svg width="50" height="50" viewBox="0 0 50 50" fill="none" xmlns="http://www.w3.org/2000/svg">
<path d="M22.5 0V2.5C18.175 3 14.225 4.75 11 7.35L9.1 5.45L5.55 9L7.5 10.875C4.76068 14.195 3.02605 18.228 2.5 22.5H0V27.5H2.5C3.025 31.7 4.75 35.65 7.5 38.9L5.55 40.8L9.1 44.35L10.975 42.5C14.2853 45.1922 18.2724 46.922 22.5 47.5V50H27.5V47.5C31.72 46.9218 35.699 45.1918 39 42.5L40.9 44.35L44.45 40.8L42.5 38.925C45.25 35.675 46.975 31.7 47.5 27.5H50V22.5H47.5C46.9738 18.2356 45.2389 14.2106 42.5 10.9L44.45 9L40.9 5.45L39.025 7.35C35.7189 4.67654 31.7228 2.99489 27.5 2.5V0H22.5ZM22.5 7.5V15L20 16.25L14.525 10.875C16.8 9.175 19.525 7.925 22.5 7.5ZM27.5 7.5C30.4 7.95 33.15 9.1 35.5 10.875L30 16.25L27.5 15V7.5ZM11 14.4L16.25 20L15 22.5H7.5C7.9 19.6 9.25 16.75 10.975 14.375L11 14.4ZM39 14.4C40.825 16.775 42.025 19.55 42.5 22.5H35L33.75 20L39.025 14.4H39ZM25 20C27.8 20 30 22.2 30 25C30 27.8 27.8 30 25 30C22.2 30 20 27.8 20 25C20 22.2 22.2 20 25 20ZM7.5 27.5H15L16.425 30L10.975 35.375C9.175 33.1 7.975 30.4 7.5 27.5ZM35 27.5H42.5C42.021 30.3826 40.8262 33.0989 39.025 35.4L33.75 30L35 27.5ZM20 33.75L22.5 35V42.5C19.5746 42.0018 16.8226 40.772 14.5 38.925L20 33.75ZM30 33.75L35.475 38.925C33.2 40.625 30.475 42.075 27.5 42.5V35L30 33.75Z" fill="#3E2882"/>
</svg>
