<svg width="49" height="47" viewBox="0 0 49 47" fill="none" xmlns="http://www.w3.org/2000/svg">
<path d="M14.9552 10.9924V19.7841H22.1194V10.9924H26.8955V19.7841H34.0597V10.9924H38.8358V19.7841L41.2239 19.7863C43.0513 19.7862 44.8096 20.4289 46.1391 21.583C47.4687 22.7371 48.2689 24.3154 48.3761 25.9948L48.3881 26.3817V28.5802C48.3881 30.8094 47.4878 32.8452 46.0024 34.3951L46 43.9695C46 44.5525 45.7484 45.1117 45.3006 45.524C44.8527 45.9363 44.2453 46.1679 43.6119 46.1679H5.40298C4.76963 46.1679 4.16222 45.9363 3.71437 45.524C3.26652 45.1117 3.01492 44.5525 3.01492 43.9695V34.3841C1.73174 33.0382 0.922358 31.3655 0.693728 29.5871L0.64119 29.0308L0.626862 28.5802V26.3817C0.62676 24.6994 1.32495 23.0806 2.57858 21.8566C3.83222 20.6327 5.54652 19.8959 7.37074 19.7973L7.79104 19.7863L10.1791 19.7841V10.9924H14.9552ZM17.3481 34.3863L17.2191 34.5248C15.6537 36.0982 13.5196 37.0931 11.2155 37.3235L10.6663 37.3631L10.1791 37.3741C9.35522 37.3741 8.55522 37.2773 7.79104 37.097V41.771H41.2239V37.097C39.6606 37.467 38.021 37.4669 36.4578 37.0968C34.8945 36.7266 33.4584 35.9984 32.283 34.9799L31.9248 34.6501L31.6716 34.3929L31.4161 34.6523C29.8676 36.1491 27.7947 37.0943 25.563 37.3213L24.9851 37.3653L24.5075 37.3741C22.0083 37.3774 19.6084 36.4738 17.8281 34.859L17.4699 34.5138L17.3481 34.3863ZM41.2239 24.1832H7.79104C7.20613 24.1833 6.64158 24.381 6.20448 24.7388C5.76738 25.0966 5.48813 25.5897 5.4197 26.1245L5.40298 26.3817V28.5164L5.41015 28.8396C5.48202 29.959 6.01579 31.0109 6.90228 31.78C7.78877 32.5491 8.96098 32.9774 10.1791 32.9771C11.3229 32.9789 12.4293 32.6026 13.2971 31.9167C14.1649 31.2308 14.7364 30.2808 14.9075 29.2397L14.9433 28.9033L14.9552 28.5164C15.0412 25.7727 19.3182 25.6738 19.7051 28.2218L19.729 28.5164L19.7385 28.8396C19.8053 29.9563 20.3318 31.0076 21.2109 31.7795C22.09 32.5514 23.2555 32.9859 24.4703 32.9946C25.6851 33.0033 26.8579 32.5855 27.7498 31.8262C28.6418 31.067 29.186 30.0233 29.2716 28.9077L29.3003 28.2878C29.5964 25.7463 33.7469 25.7463 34.043 28.2878L34.0716 28.9077C34.157 30.0173 34.6961 31.0558 35.5801 31.8141C36.4642 32.5724 37.6275 32.994 38.8358 32.994C40.0441 32.994 41.2075 32.5724 42.0915 31.8141C42.9756 31.0558 43.5146 30.0173 43.6 28.9077L43.6119 28.5802V26.3817C43.6119 25.8432 43.3971 25.3235 43.0084 24.9211C42.6198 24.5187 42.0842 24.2616 41.5033 24.1986L41.2239 24.1832ZM12.5672 0C15.7194 1.91487 16.5385 4.59041 16.0275 6.34919C15.7817 7.19406 15.1815 7.91446 14.3588 8.3519C13.5361 8.78935 12.5583 8.908 11.6406 8.68177C10.7229 8.45554 9.94035 7.90295 9.46518 7.14557C8.99001 6.38818 8.86112 5.48805 9.10686 4.64318C9.82089 2.20287 12.5672 3.29771 12.5672 0ZM24.5075 0C27.6597 1.91487 28.4788 4.59041 27.9678 6.34919C27.722 7.19406 27.1218 7.91446 26.2991 8.3519C25.4764 8.78935 24.4986 8.908 23.5809 8.68177C22.6632 8.45554 21.8806 7.90295 21.4055 7.14557C20.9303 6.38818 20.8014 5.48805 21.0472 4.64318C21.7612 2.20287 24.5075 3.29771 24.5075 0ZM36.4478 0C39.6 1.91487 40.4191 4.59041 39.9081 6.34919C39.6623 7.19406 39.0621 7.91446 38.2394 8.3519C37.4167 8.78935 36.4389 8.908 35.5212 8.68177C34.6035 8.45554 33.8209 7.90295 33.3458 7.14557C32.8706 6.38818 32.7417 5.48805 32.9875 4.64318C33.7015 2.20287 36.4478 3.29771 36.4478 0Z" fill="#3E2882"/>
</svg>
